# xmcd
#
# Track frame offsets:
#	150
#	14323
#	27391
#	40698
#	54838
#	69485
#	80210
#	94914
#	108719
#	124115
#	135013
#	150389
#	163663
#	174610
#	185939
#	198249
#	209625
#	223238
#	234860
#	248381
#	259866
#	273949
#	286963
#	301348
#	314926
#	326721
#
# Disc length: 4526 seconds
#
# Revision: 1
# Processed by: cddbd v1.5.1PL2 Copyright (c) Steve Scherf et al.
# Submitted via: audiograbber 1.83.01
#
DISCID=7b11ac1a
DTITLE=Ann Peebles - Greates Hits
DYEAR=2005
DGENRE=Blues
TTITLE0=99 lbs
TTITLE1=Walk Away
TTITLE2=Give Me Some Credit
TTITLE3=Heartaches, Heartaches
TTITLE4=Somebody's On Your Case
TTITLE5=I Still Love You
TTITLE6=Part Time Love
TTITLE7=Generation Gap Between Us
TTITLE8=Slipped, Tripped And Fell In Love
TTITLE9=Trouble, Heartaches And Sadness
TTITLE10=I Feel Like Breaking Up Somebody's Home
TTITLE11=I Pitty The Fool
TTITLE12=Do I Need You
TTITLE13=One Way Street
TTITLE14=I Can't Stand The Rain
TTITLE15=Beware
TTITLE16=A Love Vibration
TTITLE17=Doctor Love Power
TTITLE18=It Was Jealousy
TTITLE19=Being Here With You
TTITLE20=I'm Gonna Tear Your Playhouse Down
TTITLE21=When I'm In Your Arms
TTITLE22=A Good Day For Lovin'
TTITLE23=Come To Mama
TTITLE24=Old Man With Young ideas
TTITLE25=If This is Heaven
EXTD=
EXTT0=
EXTT1=
EXTT2=
EXTT3=
EXTT4=
EXTT5=
EXTT6=
EXTT7=
EXTT8=
EXTT9=
EXTT10=
EXTT11=
EXTT12=
EXTT13=
EXTT14=
EXTT15=
EXTT16=
EXTT17=
EXTT18=
EXTT19=
EXTT20=
EXTT21=
EXTT22=
EXTT23=
EXTT24=
EXTT25=
PLAYORDER=
